<?xml version="1.0" encoding="utf-8"?>
<!-- Generator: Adobe Illustrator 27.1.1, SVG Export Plug-In . SVG Version: 6.00 Build 0)  -->
<svg version="1.1" id="Warstwa_1" xmlns="http://www.w3.org/2000/svg" xmlns:xlink="http://www.w3.org/1999/xlink" x="0px" y="0px"
	 viewBox="0 0 238 56" style="enable-background:new 0 0 238 56;" xml:space="preserve">
<style type="text/css">
	.st0{fill:#101820;}
	.st1{fill:#AA182C;}
</style>
<g>
	<g>
		<path class="st0" d="M98.77,40.24c-2.91,0-5.54-0.57-7.91-1.7c-2.37-1.14-4.4-2.65-6.09-4.53c-1.7-1.88-3.01-4.03-3.94-6.46
			c-0.93-2.42-1.4-4.9-1.4-7.43c0-2.65,0.49-5.18,1.48-7.6c0.99-2.42,2.35-4.56,4.08-6.43c1.73-1.86,3.79-3.34,6.18-4.44
			C93.55,0.55,96.14,0,98.94,0c2.87,0,5.49,0.59,7.85,1.76c2.37,1.17,4.39,2.71,6.06,4.61c1.68,1.9,2.98,4.06,3.91,6.48
			c0.93,2.42,1.4,4.88,1.4,7.38c0,2.65-0.48,5.17-1.45,7.57c-0.97,2.4-2.31,4.53-4.02,6.37c-1.71,1.84-3.76,3.32-6.15,4.42
			C104.15,39.69,101.56,40.24,98.77,40.24z M87.25,20.12c0,1.71,0.26,3.37,0.78,4.97c0.52,1.6,1.28,3.02,2.26,4.25
			c0.99,1.23,2.2,2.22,3.63,2.96c1.43,0.75,3.06,1.12,4.89,1.12c1.86,0,3.51-0.38,4.95-1.15c1.43-0.76,2.65-1.78,3.63-3.05
			c0.99-1.27,1.73-2.69,2.24-4.28c0.5-1.58,0.75-3.19,0.75-4.83c0-1.71-0.27-3.37-0.81-4.97c-0.54-1.6-1.3-3.02-2.29-4.25
			c-0.99-1.23-2.2-2.21-3.63-2.93c-1.43-0.73-3.05-1.09-4.83-1.09c-1.86,0-3.52,0.38-4.97,1.15c-1.45,0.76-2.66,1.77-3.63,3.02
			c-0.97,1.25-1.7,2.66-2.21,4.25C87.51,16.87,87.25,18.48,87.25,20.12z"/>
		<path class="st0" d="M151.64,35.49c-3.17,3.17-6.86,4.75-11.07,4.75c-2.61,0-5.06-0.52-7.35-1.56c-2.29-1.04-4.28-2.48-5.98-4.3
			c-1.7-1.82-3.04-3.98-4.02-6.45c-0.99-2.48-1.48-5.15-1.48-8.02c0-2.72,0.49-5.28,1.48-7.68c0.99-2.4,2.35-4.51,4.08-6.32
			c1.73-1.81,3.77-3.24,6.12-4.3c2.35-1.06,4.9-1.59,7.66-1.59c3.73,0,6.92,0.78,9.58,2.35c2.66,1.56,4.67,3.67,6.01,6.32
			l-5.76,4.25c-1.01-1.97-2.41-3.48-4.22-4.53c-1.81-1.04-3.77-1.56-5.9-1.56c-1.68,0-3.21,0.35-4.61,1.06
			c-1.4,0.71-2.59,1.68-3.58,2.91c-0.99,1.23-1.75,2.65-2.29,4.25c-0.54,1.6-0.81,3.3-0.81,5.09c0,1.86,0.3,3.6,0.89,5.23
			c0.6,1.62,1.42,3.03,2.46,4.22c1.04,1.19,2.28,2.13,3.72,2.82c1.43,0.69,2.99,1.03,4.67,1.03c3.84,0,7.3-1.81,10.4-5.42v-2.79
			h-7.99v-5.64h14.36v20.4h-6.37V35.49z"/>
	</g>
	<g>
		<path class="st0" d="M45.14,48.72v0.58h-4.27v2.56h4v0.58h-4v2.81h4.31v0.58H40.2v-7.12H45.14z"/>
		<path class="st0" d="M53.62,48.72l-2.44,3.46l2.57,3.66h-0.81l-1.78-2.56c-0.04-0.05-0.14-0.22-0.31-0.49l-0.07-0.12
			c-0.05,0.07-0.1,0.15-0.16,0.24c-0.11,0.16-0.19,0.29-0.25,0.37l-1.79,2.56h-0.78l2.58-3.66l-2.43-3.46h0.8L50.33,51
			c0.08,0.12,0.23,0.35,0.44,0.71l0.08-0.14c0.23-0.35,0.35-0.54,0.38-0.58l1.62-2.27H53.62z"/>
		<path class="st0" d="M62.47,53.11c-0.06,0.71-0.29,1.31-0.68,1.81C61.22,55.64,60.43,56,59.41,56c-1.07,0-1.91-0.4-2.51-1.19
			c-0.5-0.66-0.75-1.5-0.75-2.51c0-1.1,0.31-2,0.93-2.71c0.6-0.68,1.39-1.02,2.39-1.02c0.94,0,1.69,0.3,2.25,0.9
			c0.39,0.42,0.61,0.88,0.66,1.39h-0.67c-0.08-0.4-0.26-0.75-0.53-1.03c-0.43-0.46-1.01-0.68-1.73-0.68c-0.89,0-1.57,0.36-2.05,1.07
			c-0.38,0.56-0.57,1.25-0.57,2.07c0,0.84,0.19,1.54,0.56,2.08c0.48,0.7,1.16,1.05,2.04,1.05c0.79,0,1.4-0.29,1.85-0.86
			c0.28-0.36,0.46-0.84,0.53-1.44H62.47z"/>
		<path class="st0" d="M70.53,55.25v0.58h-4.68v-7.12h0.68v6.53H70.53z"/>
		<path class="st0" d="M78.83,48.72v4.27c0,0.54-0.04,0.95-0.11,1.22c-0.16,0.62-0.49,1.08-0.99,1.39c-0.42,0.27-0.97,0.4-1.64,0.4
			c-1.16,0-1.97-0.38-2.43-1.15c-0.19-0.31-0.3-0.69-0.35-1.14c-0.02-0.19-0.03-0.44-0.03-0.75v-4.24h0.68v4.27
			c0,0.43,0.03,0.77,0.08,1.03c0.2,0.94,0.89,1.41,2.05,1.41c0.83,0,1.41-0.26,1.73-0.77c0.16-0.25,0.26-0.58,0.3-0.99
			c0.02-0.19,0.03-0.42,0.03-0.69v-4.26H78.83z"/>
		<path class="st0" d="M87.29,50.77h-0.65c-0.05-0.55-0.23-0.95-0.54-1.2c-0.35-0.3-0.83-0.44-1.44-0.44c-0.51,0-0.92,0.1-1.23,0.31
			c-0.36,0.25-0.54,0.6-0.54,1.05c0,0.4,0.14,0.69,0.43,0.87c0.24,0.15,0.74,0.31,1.49,0.48c0.59,0.14,1,0.24,1.21,0.3
			c1.01,0.32,1.51,0.91,1.51,1.76c0,0.67-0.27,1.21-0.81,1.61c-0.45,0.33-1.07,0.5-1.87,0.5c-0.89,0-1.58-0.21-2.08-0.64
			c-0.27-0.24-0.48-0.55-0.62-0.92c-0.1-0.27-0.15-0.57-0.15-0.88c0-0.02,0-0.04,0-0.08h0.65c0.02,0.54,0.15,0.96,0.4,1.26
			c0.39,0.46,1,0.69,1.84,0.69c0.67,0,1.17-0.14,1.51-0.43c0.31-0.27,0.47-0.61,0.47-1.04c0-0.36-0.12-0.64-0.37-0.84
			c-0.23-0.19-0.58-0.35-1.04-0.47c-0.21-0.06-0.54-0.14-1-0.24c-0.54-0.13-0.92-0.24-1.16-0.33c-0.72-0.29-1.08-0.81-1.08-1.55
			c0-0.62,0.24-1.12,0.74-1.48c0.43-0.32,1.02-0.49,1.75-0.49c1.02,0,1.75,0.31,2.2,0.94C87.14,49.83,87.27,50.25,87.29,50.77z"/>
		<path class="st0" d="M91.64,48.72v7.12h-0.68v-7.12H91.64z"/>
		<path class="st0" d="M100.82,48.72l-2.65,7.12h-0.79l-2.67-7.12h0.76l1.86,5.12c0.11,0.31,0.26,0.79,0.45,1.42
			c0.2-0.64,0.35-1.11,0.46-1.41l1.85-5.13H100.82z"/>
		<path class="st0" d="M108.85,48.72v0.58h-4.27v2.56h4v0.58h-4v2.81h4.31v0.58h-4.99v-7.12H108.85z"/>
		<path class="st0" d="M123.05,53.11c-0.06,0.71-0.29,1.31-0.68,1.81c-0.57,0.72-1.36,1.08-2.38,1.08c-1.07,0-1.91-0.4-2.51-1.19
			c-0.5-0.66-0.75-1.5-0.75-2.51c0-1.1,0.31-2,0.93-2.71c0.6-0.68,1.39-1.02,2.39-1.02c0.94,0,1.69,0.3,2.25,0.9
			c0.39,0.42,0.61,0.88,0.66,1.39h-0.67c-0.08-0.4-0.26-0.75-0.53-1.03c-0.43-0.46-1.01-0.68-1.73-0.68c-0.89,0-1.57,0.36-2.05,1.07
			c-0.38,0.56-0.57,1.25-0.57,2.07c0,0.84,0.19,1.54,0.56,2.08c0.48,0.7,1.16,1.05,2.04,1.05c0.79,0,1.4-0.29,1.85-0.86
			c0.28-0.36,0.46-0.84,0.53-1.44H123.05z"/>
		<path class="st0" d="M129.47,48.55c0.96,0,1.75,0.35,2.38,1.05c0.62,0.68,0.93,1.58,0.93,2.7c0,0.98-0.25,1.8-0.75,2.46
			c-0.63,0.83-1.51,1.25-2.62,1.25c-1.1,0-1.97-0.42-2.6-1.25c-0.5-0.66-0.75-1.48-0.75-2.47c0-1.13,0.31-2.02,0.92-2.69
			C127.63,48.9,128.46,48.55,129.47,48.55z M129.46,49.14c-0.8,0-1.46,0.28-1.97,0.86c-0.5,0.56-0.75,1.32-0.75,2.27
			c0,0.88,0.21,1.61,0.64,2.17c0.26,0.34,0.59,0.6,0.99,0.77c0.32,0.14,0.67,0.21,1.05,0.21c0.78,0,1.42-0.28,1.91-0.83
			c0.51-0.57,0.76-1.33,0.76-2.29c0-0.94-0.24-1.7-0.74-2.27C130.86,49.43,130.23,49.14,129.46,49.14z"/>
		<path class="st0" d="M140.95,55.25v0.58h-4.68v-7.12h0.68v6.53H140.95z"/>
		<path class="st0" d="M148.81,55.25v0.58h-4.68v-7.12h0.68v6.53H148.81z"/>
		<path class="st0" d="M156.94,48.72v0.58h-4.27v2.56h4v0.58h-4v2.81h4.31v0.58H152v-7.12H156.94z"/>
		<path class="st0" d="M166.34,53.11c-0.06,0.71-0.29,1.31-0.68,1.81c-0.57,0.72-1.36,1.08-2.38,1.08c-1.07,0-1.91-0.4-2.51-1.19
			c-0.5-0.66-0.75-1.5-0.75-2.51c0-1.1,0.31-2,0.93-2.71c0.6-0.68,1.39-1.02,2.39-1.02c0.94,0,1.69,0.3,2.25,0.9
			c0.39,0.42,0.61,0.88,0.66,1.39h-0.67c-0.08-0.4-0.26-0.75-0.53-1.03c-0.43-0.46-1.01-0.68-1.73-0.68c-0.89,0-1.57,0.36-2.05,1.07
			c-0.38,0.56-0.57,1.25-0.57,2.07c0,0.84,0.19,1.54,0.56,2.08c0.48,0.7,1.16,1.05,2.04,1.05c0.79,0,1.4-0.29,1.85-0.86
			c0.28-0.36,0.46-0.84,0.53-1.44H166.34z"/>
		<path class="st0" d="M174.69,48.72v0.58h-2.5v6.54h-0.68V49.3h-2.51v-0.58H174.69z"/>
		<path class="st0" d="M178.51,48.72v7.12h-0.68v-7.12H178.51z"/>
		<path class="st0" d="M185.39,48.55c0.96,0,1.75,0.35,2.38,1.05c0.62,0.68,0.93,1.58,0.93,2.7c0,0.98-0.25,1.8-0.75,2.46
			c-0.63,0.83-1.51,1.25-2.62,1.25c-1.1,0-1.97-0.42-2.6-1.25c-0.5-0.66-0.75-1.48-0.75-2.47c0-1.13,0.31-2.02,0.92-2.69
			C183.55,48.9,184.37,48.55,185.39,48.55z M185.38,49.14c-0.8,0-1.46,0.28-1.97,0.86c-0.5,0.56-0.75,1.32-0.75,2.27
			c0,0.88,0.21,1.61,0.64,2.17c0.26,0.34,0.59,0.6,0.99,0.77c0.32,0.14,0.67,0.21,1.05,0.21c0.78,0,1.42-0.28,1.91-0.83
			c0.51-0.57,0.76-1.33,0.76-2.29c0-0.94-0.24-1.7-0.74-2.27C186.78,49.43,186.14,49.14,185.38,49.14z"/>
		<path class="st0" d="M197.8,48.72v7.12h-0.75l-3.32-4.78c-0.41-0.59-0.72-1.1-0.94-1.53c0.02,0.24,0.03,0.64,0.04,1.2l0.01,0.5
			v4.6h-0.65v-7.12h0.75l3.33,4.82c0.33,0.49,0.64,0.98,0.93,1.49c-0.03-0.63-0.05-1.26-0.05-1.88v-4.44H197.8z"/>
	</g>
	<rect x="47.91" y="16.32" class="st1" width="18" height="6.71"/>
	<polygon class="st1" points="186.18,30.07 172.32,30.07 173.6,24.65 184.78,24.65 	"/>
	<g>
		<polygon class="st0" points="47.91,16.32 47.91,11.41 47.91,0.28 40.2,0.28 40.2,39.96 47.91,39.96 47.91,27.94 47.91,23.03 		"/>
		<polygon class="st0" points="65.91,0.28 65.91,11.41 65.91,16.32 65.91,23.03 65.91,27.94 65.91,39.96 73.56,39.96 73.56,0.28 		
			"/>
	</g>
	<polygon class="st0" points="182.71,0.28 175.89,0.28 160.75,39.96 168.68,39.96 172.32,30.07 173.6,24.65 179.3,9.05 
		184.78,24.65 186.18,30.07 189.87,39.96 197.8,39.96 	"/>
</g>
</svg>
